<svg version="1" xmlns="http://www.w3.org/2000/svg" width="608" height="608" viewBox="0 0 456.000000 456.000000"><path d="M175.5 9c-.2.3-.3 41.3-.3 91.3V191l9.1.1c5.1 0 14.6.1 21.2.1h12v53.3c0 29.4-.2 53.6-.5 53.9-.3.3-2.1.8-4 1.1-14.5 2.4-31.6 12.3-41.6 24.1l-4.6 5.4-11.7-6.1c-6.4-3.4-13.8-7.4-16.6-8.9-2.7-1.5-10.2-5.5-16.5-8.8-11.8-6.1-17.7-9.3-36-19-5.8-3.1-13.2-7.1-16.5-8.8l-6-3.1v-81.8l21-.1h21l.3-91.2.2-91.2-2.2-.1c-1.3 0-25-.1-52.8-.1L.5 9.7l-.3 91.2c-.2 72.5 0 91.1 1 91.2.7 0 10.2.1 21.1.1 10.8.1 20 .5 20.3 1 .3.5.6 21.7.7 47l.2 46.2 5.5 3.1c3 1.7 11.4 6.2 18.5 9.9 12.1 6.4 32.4 17.2 51 27.1 4.4 2.3 12.5 6.6 18 9.5 5.5 3 12.3 6.5 15 8 2.8 1.5 4.9 3.3 4.9 4.1-.1.8-.9 4.9-1.8 9.3-8 38 13.7 75.2 51 87 11.5 3.7 28.9 4.2 40.3 1.1 24.6-6.4 43.9-24 52.3-47.7 4.7-13.2 5.5-28 2.4-42.1-1-4.2-1.7-8-1.7-8.3-.1-.7 5.2-3.6 27.1-15.1 6.9-3.6 15.2-8 18.5-9.8 3.3-1.8 13.4-7.2 22.5-12s19.7-10.4 23.5-12.5c3.9-2 10.3-5.5 14.3-7.5 5.3-2.8 7.2-4.4 7.3-5.9 0-1.2.1-22.6.1-47.7l.1-45.7 20.8.1c11.5 0 21.1-.2 21.5-.5 1-1.1 1-181.8-.1-181.9-3.3-.4-103.8-.3-104.4.1-.4.3-.7 41.3-.7 91.2l.1 90.8 20 .1c11 .1 20.6.1 21.3 0 .9-.2 1.2 8.7 1.2 41.3v41.4l-3.2 2c-1.8 1-8 4.4-13.8 7.4-5.8 3.1-14.5 7.7-19.5 10.3-4.9 2.7-11.9 6.4-15.5 8.3-13.4 7.1-38 20.2-45.9 24.4l-5.4 2.9-3.1-3.8c-10.2-12.5-26.2-22.3-41.8-25.5-5.2-1.1-5.8-1.5-5.9-3.8-.1-3.5-.1-101.1 0-103.1.1-1.5 2.2-1.7 19.9-1.7 10.8 0 20.5-.1 21.5-.1 1.6-.1 1.7-5.1 1.7-91.4V8.5h-52.6c-28.9 0-52.7.2-52.9.5z"/></svg>