<svg xmlns="http://www.w3.org/2000/svg" width="1247.93" height="222.61" viewBox="0 0 1247.93 222.61"><title>Workhub - Logo (White)</title><path d="M324.27,59.64c39.81,0,77.13,29.86,77.13,81.49s-37.32,81.48-77.13,81.48-77.13-29.86-77.13-81.48S284.46,59.64,324.27,59.64Zm0,120.05c16.18,0,22.4-14.93,22.4-38.56s-6.22-38.57-22.4-38.57-22.39,14.93-22.39,38.57S308.1,179.69,324.27,179.69Z" fill="#fff"/><path d="M429.39,63.37h43.54l3.73,26.75h1.25c11.5-21.15,28.92-30.48,44.16-30.48,9.64,0,14.93,1.25,19.28,3.11l-8.71,46c-5.6-1.24-10.57-2.49-17.41-2.49-11.2,0-24.88,6.85-32.35,26.13v86.46H429.39Z" fill="#fff"/><path d="M559.39,2.42h52.25V117.49h1.24L655.8,63.37h57.85l-55.36,64.69,58.47,90.82H658.91l-31.1-55.36-16.17,18v37.32H559.39Z" fill="#fff"/><path d="M736,2.42h53.5V52.8L787,79.55c10.57-9.33,25.5-19.91,46.65-19.91,34.21,0,48.51,24.88,48.51,63.45v95.79H828.71V129.93c0-19.9-5-24.88-15.55-24.88-9.95,0-15.55,4.35-23.63,11.82v102H736Z" fill="#fff"/><path d="M915.79,63.37h53.49v88.95c0,19.91,5,24.88,15.55,24.88,9.95,0,15.55-3.73,22.39-13.68V63.37h53.49V218.88h-43.54l-3.73-20.53h-1.24c-12.44,14.93-26.75,24.26-47.9,24.26-34.21,0-48.51-24.88-48.51-63.45Z" fill="#fff"/><path d="M1096.78,2.42h53.5V52.8L1149,75.19c10.89-10,24.57-15.55,38.26-15.55,36.69,0,60.64,31.1,60.64,78.69,0,53.8-31.72,84.28-64.69,84.28-13.68,0-27.37-6.84-39.18-20.53h-1.25l-4.35,16.8h-41.68Zm73.4,176.65c12.44,0,23-9.95,23-39.81,0-25.5-7.46-36.08-21.76-36.08-8.09,0-14.31,3.11-21.15,11.2V171.6A28.54,28.54,0,0,0,1170.18,179.07Z" fill="#fff"/><rect x="108.79" y="91.33" width="10" height="90.78" fill="#fff"/><polygon points="116.14 186.53 111.45 177.69 196.01 132.82 196.01 91.2 206.01 91.2 206.01 138.84 116.14 186.53" fill="#fff"/><polygon points="111.45 186.53 21.58 138.84 21.58 91.2 31.58 91.2 31.58 132.82 116.14 177.69 111.45 186.53" fill="#fff"/><circle cx="113.79" cy="182.11" r="37.38" fill="#fff"/><rect y="0.58" width="52.84" height="91.2" fill="#fff"/><rect x="87.57" width="52.84" height="91.2" fill="#fff"/><rect x="174.71" width="52.84" height="91.2" fill="#fff"/></svg>